<?xml version="1.0" encoding="utf-8"?>
<!-- Generator: Adobe Illustrator 17.0.0, SVG Export Plug-In . SVG Version: 6.00 Build 0)  -->
<!DOCTYPE svg PUBLIC "-//W3C//DTD SVG 1.1//EN" "http://www.w3.org/Graphics/SVG/1.1/DTD/svg11.dtd">
<svg version="1.1" id="Layer_1" xmlns="http://www.w3.org/2000/svg" xmlns:xlink="http://www.w3.org/1999/xlink" x="0px" y="0px"
	 width="40px" height="40px" viewBox="0 0 40 40" enable-background="new 0 0 40 40" xml:space="preserve">
<g>
	<path fill="#FFFFFF" d="M15.755,21.851c0,2.333,1.875,4.226,4.188,4.226c2.312,0,4.185-1.892,4.185-4.226
		c0-2.333-2.179-5.462-4.185-8.109C17.935,16.389,15.755,19.519,15.755,21.851z"/>
	<path fill="#FFFFFF" d="M34.05,5.836c-3.889-3.89-8.996-5.832-14.103-5.835V0c-0.002,0-0.002,0-0.004,0c-0.001,0-0.004,0-0.004,0
		v0.001C14.831,0.004,9.723,1.946,5.836,5.836C1.945,9.724,0,14.834,0,19.944c0,5.11,1.945,10.219,5.836,14.108
		c3.888,3.887,8.994,5.832,14.104,5.835c0,0,0.003,0,0.004,0c0.002,0,0.002,0,0.004,0c5.107-0.003,10.215-1.948,14.103-5.835
		c3.89-3.889,5.836-8.998,5.836-14.108C39.887,14.834,37.941,9.724,34.05,5.836z M25.997,3.513c2.313,0.85,4.486,2.181,6.34,4.034
		c1.668,1.667,2.921,3.594,3.776,5.644l-3.891,1.672c-0.646-1.572-1.603-3.045-2.879-4.32c-1.434-1.434-3.122-2.456-4.916-3.096
		L25.997,3.513z M7.548,7.55c1.668-1.67,3.592-2.921,5.646-3.776l1.669,3.89c-1.57,0.646-3.043,1.605-4.318,2.879
		c-1.436,1.432-2.457,3.119-3.096,4.914l-3.935-1.571C4.363,11.576,5.694,9.403,7.548,7.55z M13.889,36.373
		c-2.313-0.851-4.487-2.182-6.338-4.036c-1.669-1.668-2.921-3.592-3.778-5.645l3.893-1.668c0.646,1.571,1.602,3.045,2.879,4.319
		c1.433,1.435,3.119,2.456,4.913,3.096L13.889,36.373z M19.94,30.809L19.94,30.809c-2.782,0-5.565-1.06-7.681-3.179
		c-2.12-2.119-3.181-4.904-3.181-7.687c0-2.783,1.06-5.567,3.18-7.687c2.121-2.119,4.905-3.178,7.691-3.178V9.077
		c2.78,0.002,5.561,1.061,7.678,3.179c2.121,2.12,3.182,4.905,3.182,7.689h0.002c0,2.783-1.06,5.567-3.181,7.687
		C25.508,29.749,22.724,30.809,19.94,30.809z M32.337,32.338c-1.665,1.665-3.591,2.92-5.644,3.773l-1.672-3.885
		c1.571-0.65,3.045-1.609,4.322-2.883c1.434-1.432,2.455-3.118,3.096-4.914l3.932,1.569C35.523,28.309,34.19,30.483,32.337,32.338z"
		/>
</g>
</svg>
