<?xml version="1.0" encoding="utf-8"?>
<!-- Generator: Adobe Illustrator 17.0.0, SVG Export Plug-In . SVG Version: 6.00 Build 0)  -->
<!DOCTYPE svg PUBLIC "-//W3C//DTD SVG 1.1//EN" "http://www.w3.org/Graphics/SVG/1.1/DTD/svg11.dtd">
<svg version="1.1" xmlns="http://www.w3.org/2000/svg" xmlns:xlink="http://www.w3.org/1999/xlink" x="0px" y="0px" width="496px"
	 height="92px" viewBox="0 0 496 92" enable-background="new 0 0 496 92" xml:space="preserve">
<g>
	<path fill="#00A9E8" d="M33.072,45.877c0,4.897,3.936,8.872,8.79,8.872c4.854,0,8.787-3.975,8.787-8.872
		c0-4.897-4.574-11.467-8.787-17.025C37.648,34.41,33.072,40.979,33.072,45.877z"/>
	<path fill="#00A9E8" d="M71.477,12.253C63.313,4.086,52.594,0.007,41.873,0.003V0c-0.005,0-0.005,0-0.009,0
		c-0.001,0-0.007,0-0.007,0v0.003C31.132,0.007,20.41,4.086,12.252,12.253C4.082,20.417,0,31.145,0,41.873
		c0,10.728,4.082,21.454,12.252,29.619c8.161,8.161,18.88,12.245,29.605,12.251c0,0,0.006,0,0.007,0c0.004,0,0.004,0,0.009,0
		c10.721-0.006,21.442-4.09,29.604-12.251c8.166-8.165,12.251-18.892,12.251-29.619C83.728,31.145,79.643,20.417,71.477,12.253z
		 M54.572,7.376c4.854,1.785,9.417,4.58,13.307,8.469c3.501,3.5,6.133,7.546,7.927,11.851l-8.168,3.51
		c-1.357-3.3-3.365-6.392-6.044-9.07c-3.009-3.01-6.551-5.156-10.317-6.5L54.572,7.376z M15.845,15.852
		c3.502-3.508,7.541-6.134,11.852-7.928l3.502,8.166c-3.294,1.358-6.388,3.371-9.063,6.046c-3.014,3.007-5.157,6.548-6.5,10.318
		l-8.26-3.299C9.159,24.303,11.953,19.742,15.845,15.852z M29.154,76.367c-4.855-1.786-9.419-4.582-13.306-8.473
		c-3.502-3.501-6.132-7.541-7.93-11.851l8.172-3.505c1.356,3.301,3.364,6.392,6.045,9.067c3.006,3.013,6.548,5.156,10.313,6.501
		L29.154,76.367z M41.856,64.686L41.856,64.686c-5.839,0-11.681-2.226-16.123-6.673c-4.45-4.45-6.679-10.297-6.679-16.14
		c0-5.844,2.225-11.689,6.675-16.14c4.452-4.449,10.297-6.672,16.144-6.672v-0.004c5.836,0.004,11.673,2.227,16.118,6.674
		c4.452,4.451,6.679,10.298,6.679,16.142h0.004c0,5.843-2.226,11.688-6.677,16.14C53.546,62.46,47.7,64.686,41.856,64.686z
		 M67.879,67.893c-3.496,3.499-7.538,6.132-11.846,7.923l-3.51-8.155c3.299-1.365,6.392-3.379,9.071-6.054
		c3.011-3.006,5.155-6.547,6.499-10.317l8.253,3.293C74.569,59.438,71.771,64.001,67.879,67.893z"/>
</g>
<g>
	<polygon fill="#374C61" points="151.716,36.375 124.014,36.375 124.014,10.204 111.549,10.204 111.549,72.853 124.014,72.853 
		124.014,48.151 151.716,48.151 151.716,72.853 164.183,72.853 164.183,10.204 151.716,10.204 	"/>
	<path fill="#374C61" d="M213.496,29.867c-4.567-3.934-10.18-5.93-16.676-5.93c-6.515,0-12.249,2.252-17.054,6.695
		c-4.826,4.462-7.273,10.541-7.273,18.066c0,7.516,2.397,13.604,7.134,18.1c4.717,4.476,10.517,6.745,17.235,6.745
		c8.229,0,15.017-2.703,20.167-8.032l0.742-0.768l-7.133-7.804l-0.832,1.011c-2.793,3.386-6.804,5.029-12.256,5.029
		c-3.364,0-6.393-0.959-9.007-2.852c-2.203-1.596-3.505-3.574-3.96-6.018h35.873v-7.788
		C220.457,39.389,218.115,33.853,213.496,29.867z M184.489,44.236c0.255-2.798,1.485-5.006,3.737-6.73
		c2.602-1.995,5.579-3.005,8.852-3.005c3.291,0,5.973,0.931,8.202,2.838c1.935,1.658,2.983,3.922,3.192,6.897H184.489z"/>
	<rect x="228.767" y="7.134" fill="#374C61" width="11.948" height="66.367"/>
	<path fill="#374C61" d="M298.285,49.131c0-7.369-2.324-13.366-6.908-17.832c-4.574-4.455-10.161-6.713-16.599-6.713
		c-5.464,0-10.094,2.168-13.807,6.453v-5.763h-11.948V92h11.948V68.213c4.327,3.971,9.18,5.979,14.455,5.979
		c6.073,0,11.465-2.355,16.012-6.99C295.984,62.569,298.285,56.487,298.285,49.131z M286.338,49.52c0,4.123-1.271,7.376-3.89,9.938
		c-2.624,2.573-5.615,3.824-9.139,3.824c-3.508,0-6.402-1.257-8.85-3.832c-2.461-2.603-3.66-5.863-3.66-9.977
		c0-4.061,1.235-7.48,3.677-10.159c2.444-2.686,5.362-3.992,8.918-3.992c3.569,0,6.547,1.313,9.111,4.01
		C285.086,42.047,286.338,45.378,286.338,49.52z"/>
	<path fill="#374C61" d="M306.716,74.714c0,1.964-0.436,3.494-1.303,4.546c-0.809,0.998-2.007,1.483-3.648,1.483
		c-1.672,0-3.398-0.85-5.126-2.527l-1.016-0.986l-5.736,9.267l0.711,0.636c3.595,3.23,7.643,4.868,12.029,4.868
		c4.406,0,8.219-1.546,11.334-4.601c3.119-3.059,4.701-7.213,4.701-12.344v-49.78h-11.946V74.714z"/>
	<path fill="#374C61" d="M359.626,51.287c0,3.96-1.092,6.862-3.334,8.872c-2.284,2.044-4.887,3.036-7.966,3.036
		c-6.417,0-9.402-3.675-9.402-11.562V25.276h-11.95v29.293c0,6.279,1.726,11.171,5.132,14.542c3.402,3.372,7.9,5.081,13.369,5.081
		c3.359,0,6.53-0.864,9.43-2.575c1.81-1.068,3.388-2.398,4.722-3.971v6.546h11.947V25.276h-11.947V51.287z"/>
	<path fill="#374C61" d="M385.941,7.021c-1.645,0-3.084,0.6-4.271,1.788c-1.185,1.187-1.786,2.624-1.786,4.271
		c0,1.642,0.602,3.081,1.786,4.265c1.188,1.192,2.626,1.789,4.271,1.789c1.644,0,3.079-0.596,4.267-1.789
		c1.188-1.184,1.79-2.622,1.79-4.265c0-1.641-0.602-3.085-1.79-4.271C389.02,7.621,387.585,7.021,385.941,7.021z"/>
	<path fill="#374C61" d="M312.606,7.021c-1.645,0-3.084,0.6-4.27,1.788c-1.188,1.187-1.786,2.624-1.786,4.271
		c0,1.642,0.599,3.081,1.786,4.265c1.187,1.192,2.625,1.789,4.27,1.789c1.642,0,3.083-0.596,4.266-1.789
		c1.189-1.184,1.79-2.622,1.79-4.265c0-1.641-0.601-3.085-1.79-4.271C315.689,7.621,314.248,7.021,312.606,7.021z"/>
	<rect x="380.021" y="25.276" fill="#374C61" width="11.946" height="48.917"/>
	<path fill="#374C61" d="M437.3,57.934c-3.518,3.631-7.29,5.469-11.203,5.469c-3.972,0-7.225-1.318-9.933-4.027
		c-2.713-2.713-4.03-5.935-4.03-9.849c0-3.895,1.317-6.977,4.03-9.423c2.749-2.484,5.903-3.69,9.633-3.69
		c3.693,0,7.443,1.634,11.148,4.854l0.877,0.765l7.015-8.616l-0.715-0.715c-4.929-4.929-11.04-7.425-18.153-7.425
		c-7.099,0-13.209,2.298-18.157,6.835c-4.978,4.559-7.504,10.55-7.504,17.798c0,7.247,2.421,13.202,7.192,17.704
		c4.754,4.485,10.504,6.762,17.103,6.762c7.519,0,14.229-2.931,19.947-8.712l0.754-0.764l-7.17-7.822L437.3,57.934z"/>
	<path fill="#374C61" d="M495.872,47.304c0-6.823-2.304-12.272-6.85-16.19c-4.493-3.873-10.017-5.837-16.408-5.837
		c-6.411,0-12.057,2.215-16.782,6.588c-4.75,4.39-7.158,10.372-7.158,17.776c0,7.399,2.36,13.387,7.02,17.811
		c4.64,4.402,10.351,6.639,16.962,6.639c8.097,0,14.775-2.662,19.843-7.907l0.729-0.754l-7.016-7.679l-0.822,0.995
		c-2.748,3.331-6.691,4.947-12.058,4.947c-3.31,0-6.291-0.942-8.863-2.805c-2.17-1.572-3.45-3.518-3.893-5.921h35.295V47.304z
		 M460.478,45.248c0.251-2.751,1.463-4.924,3.678-6.624c2.562-1.959,5.488-2.955,8.713-2.955c3.234,0,5.878,0.912,8.068,2.795
		c1.903,1.631,2.939,3.86,3.142,6.784H460.478z"/>
</g>
</svg>
